<svg width="52" height="26" viewBox="0 0 52 26" fill="none" xmlns="http://www.w3.org/2000/svg">
<path d="M14.04 25.2C13.0534 25.2 12.2134 24.8533 11.52 24.16C10.8267 23.4666 10.48 22.6266 10.48 21.64V21.2H4.32002V18.28H2.19619e-05V4.63997C2.19619e-05 3.0933 0.306689 1.9333 0.920022 1.15997C1.56002 0.386638 2.60002 -2.80046e-05 4.04002 -2.80046e-05H34C35.3334 -2.80046e-05 36.24 0.279972 36.72 0.839971C37.2267 1.39997 37.48 2.51997 37.48 4.19997V5.71997H41.76C43.1734 5.71997 44.36 6.31997 45.32 7.51997C46.28 8.6933 46.9467 10.5066 47.32 12.96C48.4934 13.0133 49.4267 13.4133 50.12 14.16C50.8134 14.9066 51.16 15.84 51.16 16.96V21.2H46.56C46.5867 21.3066 46.6 21.4533 46.6 21.64C46.6 22.6 46.2534 23.44 45.56 24.16C44.8667 24.8533 44.0267 25.2 43.04 25.2C42.0534 25.2 41.2134 24.8533 40.52 24.16C39.8267 23.4666 39.48 22.6266 39.48 21.64V21.2H17.56C17.5867 21.3066 17.6 21.4533 17.6 21.64C17.6 22.6 17.2534 23.44 16.56 24.16C15.8667 24.8533 15.0267 25.2 14.04 25.2ZM39.04 12.84H44.6C44.4934 11.32 44.1334 10.08 43.52 9.11997C42.9067 8.15997 42.1467 7.67997 41.24 7.67997H39.04V12.84Z" fill="#FF0000"/>
</svg>
