<svg width="50" height="50" viewBox="0 0 50 50" fill="none" xmlns="http://www.w3.org/2000/svg">
<path d="M0.00249982 27.2025H13.695C14.1228 35.1196 16.6464 42.781 21.0075 49.4025C15.5444 48.5449 10.5195 45.9011 6.71852 41.8844C2.91758 37.8677 0.55742 32.7046 0.00249982 27.2025ZM0 22.2025C0.554272 16.7003 2.91634 11.5369 6.71683 7.51976C10.5173 3.5026 15.542 0.858175 21.005 0C16.6439 6.62153 14.1203 14.2829 13.6925 22.2L0 22.2025ZM49.75 22.2025H36.0575C35.6301 14.2845 33.1065 6.62225 28.745 0C34.2081 0.857553 39.233 3.5014 43.034 7.5181C46.8349 11.5348 49.1976 16.6979 49.7525 22.2M49.7525 27.2C49.1977 32.7017 46.8354 37.8646 43.035 41.8812C39.2345 45.8979 34.2102 48.5419 28.7475 49.4C33.1082 42.7792 35.6318 35.1188 36.06 27.2025L49.7525 27.2ZM18.7025 27.2025H31.0525C30.6419 33.9514 28.5166 40.484 24.8775 46.1825C21.2384 40.484 19.1131 33.9514 18.7025 27.2025ZM18.7025 22.2025C19.1131 15.4536 21.2384 8.92103 24.8775 3.2225C28.5166 8.92103 30.6419 15.4536 31.0525 22.2025H18.7025Z" fill="#FF0000"/>
</svg>
